<?xml version="1.0" encoding="UTF-8"?>
<svg height="20.0" width="519.6382978723404" xmlns="http://www.w3.org/2000/svg">
 <g>
  <rect x="10.0" y="-215.0" width="10.638297872340425" height="225.0" style="fill:cyan;opacity:0.3;"/>
  <text x="10.0" y="10.0" transform="matrix(6.123233995736766E-17,-1.0,1.0,6.123233995736766E-17,0.0,20.0)" style="font-size:1.0000000000000013px;">United States</text>
  <rect x="20.0" y="-131.0" width="10.638297872340425" height="141.0" style="fill:cyan;opacity:0.3;"/>
  <text x="20.0" y="10.0" transform="matrix(6.123233995736766E-17,-1.0,1.0,6.123233995736766E-17,9.999999999999998,30.0)" style="font-size:1.0000000000000013px;">China</text>
  <rect x="31.0" y="-78.0" width="10.638297872340425" height="88.0" style="fill:cyan;opacity:0.3;"/>
  <text x="31.0" y="10.0" transform="matrix(6.123233995736766E-17,-1.0,1.0,6.123233995736766E-17,21.0,41.0)" style="font-size:1.0000000000000013px;">Japan</text>
  <rect x="41.0" y="-68.0" width="10.638297872340425" height="78.0" style="fill:cyan;opacity:0.3;"/>
  <text x="41.0" y="10.0" transform="matrix(6.123233995736766E-17,-1.0,1.0,6.123233995736766E-17,31.0,51.0)" style="font-size:1.0000000000000013px;">Germany</text>
  <rect x="52.0" y="-66.0" width="10.638297872340425" height="76.0" style="fill:cyan;opacity:0.3;"/>
  <text x="52.0" y="10.0" transform="matrix(6.123233995736766E-17,-1.0,1.0,6.123233995736766E-17,42.0,62.0)" style="font-size:1.0000000000000013px;">France</text>
  <rect x="63.0" y="-45.0" width="10.638297872340425" height="55.0" style="fill:cyan;opacity:0.3;"/>
  <text x="63.0" y="10.0" transform="matrix(6.123233995736766E-17,-1.0,1.0,6.123233995736766E-17,53.0,73.0)" style="font-size:1.0000000000000013px;">United Kingdom</text>
  <rect x="73.0" y="-45.0" width="10.638297872340425" height="55.0" style="fill:cyan;opacity:0.3;"/>
  <text x="73.0" y="10.0" transform="matrix(6.123233995736766E-17,-1.0,1.0,6.123233995736766E-17,62.99999999999999,83.0)" style="font-size:1.0000000000000013px;">Canada</text>
  <rect x="84.0" y="-42.0" width="10.638297872340425" height="52.0" style="fill:cyan;opacity:0.3;"/>
  <text x="84.0" y="10.0" transform="matrix(6.123233995736766E-17,-1.0,1.0,6.123233995736766E-17,74.0,94.0)" style="font-size:1.0000000000000013px;">Italy</text>
  <rect x="95.0" y="-21.0" width="10.638297872340425" height="31.0" style="fill:cyan;opacity:0.3;"/>
  <text x="95.0" y="10.0" transform="matrix(6.123233995736766E-17,-1.0,1.0,6.123233995736766E-17,85.0,105.0)" style="font-size:1.0000000000000013px;">United States;</text>
  <rect x="105.0" y="-18.0" width="10.638297872340425" height="28.0" style="fill:cyan;opacity:0.3;"/>
  <text x="105.0" y="10.0" transform="matrix(6.123233995736766E-17,-1.0,1.0,6.123233995736766E-17,95.0,115.0)" style="font-size:1.0000000000000013px;">Netherlands</text>
  <rect x="116.0" y="-13.0" width="10.638297872340425" height="23.0" style="fill:cyan;opacity:0.3;"/>
  <text x="116.0" y="10.0" transform="matrix(6.123233995736766E-17,-1.0,1.0,6.123233995736766E-17,106.0,126.0)" style="font-size:1.0000000000000013px;">Singapore</text>
  <rect x="127.0" y="-13.0" width="10.638297872340425" height="23.0" style="fill:cyan;opacity:0.3;"/>
  <text x="127.0" y="10.0" transform="matrix(6.123233995736766E-17,-1.0,1.0,6.123233995736766E-17,117.0,137.0)" style="font-size:1.0000000000000013px;">Austria</text>
  <rect x="137.0" y="-9.0" width="10.638297872340425" height="19.0" style="fill:cyan;opacity:0.3;"/>
  <text x="137.0" y="10.0" transform="matrix(6.123233995736766E-17,-1.0,1.0,6.123233995736766E-17,126.99999999999999,147.0)" style="font-size:1.0000000000000013px;">Switzerland</text>
  <rect x="148.0" y="-6.0" width="10.638297872340425" height="16.0" style="fill:cyan;opacity:0.3;"/>
  <text x="148.0" y="10.0" transform="matrix(6.123233995736766E-17,-1.0,1.0,6.123233995736766E-17,138.0,158.0)" style="font-size:1.0000000000000013px;">Fiji</text>
  <rect x="158.0" y="-6.0" width="10.638297872340425" height="16.0" style="fill:cyan;opacity:0.3;"/>
  <text x="158.0" y="10.0" transform="matrix(6.123233995736766E-17,-1.0,1.0,6.123233995736766E-17,148.0,168.0)" style="font-size:1.0000000000000013px;">Israel</text>
  <rect x="169.0" y="-4.0" width="10.638297872340425" height="14.0" style="fill:cyan;opacity:0.3;"/>
  <text x="169.0" y="10.0" transform="matrix(6.123233995736766E-17,-1.0,1.0,6.123233995736766E-17,159.0,179.0)" style="font-size:1.0000000000000013px;">Georgia</text>
  <rect x="180.0" y="-1.0" width="10.638297872340425" height="11.0" style="fill:cyan;opacity:0.3;"/>
  <text x="180.0" y="10.0" transform="matrix(6.123233995736766E-17,-1.0,1.0,6.123233995736766E-17,170.0,190.0)" style="font-size:1.0000000000000013px;">India</text>
  <rect x="190.0" y="-1.0" width="10.638297872340425" height="11.0" style="fill:cyan;opacity:0.3;"/>
  <text x="190.0" y="10.0" transform="matrix(6.123233995736766E-17,-1.0,1.0,6.123233995736766E-17,180.0,200.0)" style="font-size:1.0000000000000013px;">Spain</text>
  <rect x="201.0" y="-1.0" width="10.638297872340425" height="11.0" style="fill:cyan;opacity:0.3;"/>
  <text x="201.0" y="10.0" transform="matrix(6.123233995736766E-17,-1.0,1.0,6.123233995736766E-17,191.0,211.0)" style="font-size:1.0000000000000013px;">Belgium</text>
  <rect x="212.0" y="-1.0" width="10.638297872340425" height="11.0" style="fill:cyan;opacity:0.3;"/>
  <text x="212.0" y="10.0" transform="matrix(6.123233995736766E-17,-1.0,1.0,6.123233995736766E-17,202.0,222.0)" style="font-size:1.0000000000000013px;">United Kingdom;</text>
  <rect x="222.0" y="1.0" width="10.638297872340425" height="9.0" style="fill:cyan;opacity:0.3;"/>
  <text x="222.0" y="10.0" transform="matrix(6.123233995736766E-17,-1.0,1.0,6.123233995736766E-17,212.0,232.0)" style="font-size:1.0000000000000013px;">United States.</text>
  <rect x="233.0" y="1.0" width="10.638297872340425" height="9.0" style="fill:cyan;opacity:0.3;"/>
  <text x="233.0" y="10.0" transform="matrix(6.123233995736766E-17,-1.0,1.0,6.123233995736766E-17,223.0,243.0)" style="font-size:1.0000000000000013px;">Portugal</text>
  <rect x="244.0" y="1.0" width="10.638297872340425" height="9.0" style="fill:cyan;opacity:0.3;"/>
  <text x="244.0" y="10.0" transform="matrix(6.123233995736766E-17,-1.0,1.0,6.123233995736766E-17,234.0,254.0)" style="font-size:1.0000000000000013px;">Sweden</text>
  <rect x="254.0" y="1.0" width="10.638297872340425" height="9.0" style="fill:cyan;opacity:0.3;"/>
  <text x="254.0" y="10.0" transform="matrix(6.123233995736766E-17,-1.0,1.0,6.123233995736766E-17,243.99999999999997,264.0)" style="font-size:1.0000000000000013px;">Jordan</text>
  <rect x="265.0" y="1.0" width="10.638297872340425" height="9.0" style="fill:cyan;opacity:0.3;"/>
  <text x="265.0" y="10.0" transform="matrix(6.123233995736766E-17,-1.0,1.0,6.123233995736766E-17,254.99999999999997,275.0)" style="font-size:1.0000000000000013px;">Mexico</text>
  <rect x="275.0" y="3.0" width="10.638297872340425" height="7.0" style="fill:cyan;opacity:0.3;"/>
  <text x="275.0" y="10.0" transform="matrix(6.123233995736766E-17,-1.0,1.0,6.123233995736766E-17,265.0,285.0)" style="font-size:1.0000000000000013px;">Monaco</text>
  <rect x="286.0" y="3.0" width="10.638297872340425" height="7.0" style="fill:cyan;opacity:0.3;"/>
  <text x="286.0" y="10.0" transform="matrix(6.123233995736766E-17,-1.0,1.0,6.123233995736766E-17,276.0,296.0)" style="font-size:1.0000000000000013px;">Ireland</text>
  <rect x="297.0" y="3.0" width="10.638297872340425" height="7.0" style="fill:cyan;opacity:0.3;"/>
  <text x="297.0" y="10.0" transform="matrix(6.123233995736766E-17,-1.0,1.0,6.123233995736766E-17,287.0,307.0)" style="font-size:1.0000000000000013px;">Australia</text>
  <rect x="307.0" y="6.0" width="10.638297872340425" height="4.0" style="fill:cyan;opacity:0.3;"/>
  <text x="307.0" y="10.0" transform="matrix(6.123233995736766E-17,-1.0,1.0,6.123233995736766E-17,297.0,317.0)" style="font-size:1.0000000000000013px;">United States,</text>
  <rect x="318.0" y="6.0" width="10.638297872340425" height="4.0" style="fill:cyan;opacity:0.3;"/>
  <text x="318.0" y="10.0" transform="matrix(6.123233995736766E-17,-1.0,1.0,6.123233995736766E-17,308.0,328.0)" style="font-size:1.0000000000000013px;">Chad</text>
  <rect x="329.0" y="6.0" width="10.638297872340425" height="4.0" style="fill:cyan;opacity:0.3;"/>
  <text x="329.0" y="10.0" transform="matrix(6.123233995736766E-17,-1.0,1.0,6.123233995736766E-17,319.0,339.0)" style="font-size:1.0000000000000013px;">United Kingdom,</text>
  <rect x="339.0" y="6.0" width="10.638297872340425" height="4.0" style="fill:cyan;opacity:0.3;"/>
  <text x="339.0" y="10.0" transform="matrix(6.123233995736766E-17,-1.0,1.0,6.123233995736766E-17,329.0,349.0)" style="font-size:1.0000000000000013px;">Greece</text>
  <rect x="350.0" y="6.0" width="10.638297872340425" height="4.0" style="fill:cyan;opacity:0.3;"/>
  <text x="350.0" y="10.0" transform="matrix(6.123233995736766E-17,-1.0,1.0,6.123233995736766E-17,340.0,360.0)" style="font-size:1.0000000000000013px;">Poland</text>
  <rect x="361.0" y="6.0" width="10.638297872340425" height="4.0" style="fill:cyan;opacity:0.3;"/>
  <text x="361.0" y="10.0" transform="matrix(6.123233995736766E-17,-1.0,1.0,6.123233995736766E-17,351.0,371.0)" style="font-size:1.0000000000000013px;">Brazil</text>
  <rect x="371.0" y="6.0" width="10.638297872340425" height="4.0" style="fill:cyan;opacity:0.3;"/>
  <text x="371.0" y="10.0" transform="matrix(6.123233995736766E-17,-1.0,1.0,6.123233995736766E-17,361.0,381.0)" style="font-size:1.0000000000000013px;">Chile</text>
  <rect x="382.0" y="6.0" width="10.638297872340425" height="4.0" style="fill:cyan;opacity:0.3;"/>
  <text x="382.0" y="10.0" transform="matrix(6.123233995736766E-17,-1.0,1.0,6.123233995736766E-17,372.0,392.0)" style="font-size:1.0000000000000013px;">Ukraine</text>
  <rect x="392.0" y="6.0" width="10.638297872340425" height="4.0" style="fill:cyan;opacity:0.3;"/>
  <text x="392.0" y="10.0" transform="matrix(6.123233995736766E-17,-1.0,1.0,6.123233995736766E-17,382.0,402.0)" style="font-size:1.0000000000000013px;">Norway</text>
  <rect x="403.0" y="8.0" width="10.638297872340425" height="2.0" style="fill:cyan;opacity:0.3;"/>
  <text x="403.0" y="10.0" transform="matrix(6.123233995736766E-17,-1.0,1.0,6.123233995736766E-17,393.0,413.0)" style="font-size:1.0000000000000013px;">Hong Kong</text>
  <rect x="414.0" y="8.0" width="10.638297872340425" height="2.0" style="fill:cyan;opacity:0.3;"/>
  <text x="414.0" y="10.0" transform="matrix(6.123233995736766E-17,-1.0,1.0,6.123233995736766E-17,404.0,424.0)" style="font-size:1.0000000000000013px;">Sudan</text>
  <rect x="424.0" y="8.0" width="10.638297872340425" height="2.0" style="fill:cyan;opacity:0.3;"/>
  <text x="424.0" y="10.0" transform="matrix(6.123233995736766E-17,-1.0,1.0,6.123233995736766E-17,414.0,434.0)" style="font-size:1.0000000000000013px;">Malta</text>
  <rect x="435.0" y="8.0" width="10.638297872340425" height="2.0" style="fill:cyan;opacity:0.3;"/>
  <text x="435.0" y="10.0" transform="matrix(6.123233995736766E-17,-1.0,1.0,6.123233995736766E-17,425.0,445.0)" style="font-size:1.0000000000000013px;">Mali</text>
  <rect x="446.0" y="8.0" width="10.638297872340425" height="2.0" style="fill:cyan;opacity:0.3;"/>
  <text x="446.0" y="10.0" transform="matrix(6.123233995736766E-17,-1.0,1.0,6.123233995736766E-17,436.0,456.0)" style="font-size:1.0000000000000013px;">Tunisia</text>
  <rect x="456.0" y="8.0" width="10.638297872340425" height="2.0" style="fill:cyan;opacity:0.3;"/>
  <text x="456.0" y="10.0" transform="matrix(6.123233995736766E-17,-1.0,1.0,6.123233995736766E-17,446.0,466.0)" style="font-size:1.0000000000000013px;">Argentina</text>
  <rect x="467.0" y="8.0" width="10.638297872340425" height="2.0" style="fill:cyan;opacity:0.3;"/>
  <text x="467.0" y="10.0" transform="matrix(6.123233995736766E-17,-1.0,1.0,6.123233995736766E-17,457.0,477.0)" style="font-size:1.0000000000000013px;">Czech Republic</text>
  <rect x="478.0" y="8.0" width="10.638297872340425" height="2.0" style="fill:cyan;opacity:0.3;"/>
  <text x="478.0" y="10.0" transform="matrix(6.123233995736766E-17,-1.0,1.0,6.123233995736766E-17,468.0,488.0)" style="font-size:1.0000000000000013px;">United Kingdom.</text>
  <rect x="488.0" y="8.0" width="10.638297872340425" height="2.0" style="fill:cyan;opacity:0.3;"/>
  <text x="488.0" y="10.0" transform="matrix(6.123233995736766E-17,-1.0,1.0,6.123233995736766E-17,477.99999999999994,498.0)" style="font-size:1.0000000000000013px;">Hong Kong.</text>
  <rect x="499.0" y="8.0" width="10.638297872340425" height="2.0" style="fill:cyan;opacity:0.3;"/>
  <text x="499.0" y="10.0" transform="matrix(6.123233995736766E-17,-1.0,1.0,6.123233995736766E-17,488.99999999999994,509.0)" style="font-size:1.0000000000000013px;">Montenegro</text>
 </g>
</svg>
