<?xml version="1.0" encoding="UTF-8"?>
<svg height="20.0" width="519.1546391752577" xmlns="http://www.w3.org/2000/svg">
 <g>
  <rect x="10.0" y="-215.0" width="5.154639175257732" height="225.0" style="fill:cyan;opacity:0.3;"/>
  <text x="10.0" y="10.0" transform="matrix(6.123233995736766E-17,-1.0,1.0,6.123233995736766E-17,0.0,20.0)" style="font-size:1.0000000000000013px;">Caenorhabditis </text>
  <rect x="15.0" y="-148.0" width="5.154639175257732" height="158.0" style="fill:cyan;opacity:0.3;"/>
  <text x="15.0" y="10.0" transform="matrix(6.123233995736766E-17,-1.0,1.0,6.123233995736766E-17,4.999999999999998,25.0)" style="font-size:1.0000000000000013px;">Escherichia col</text>
  <rect x="20.0" y="-109.0" width="5.154639175257732" height="119.0" style="fill:cyan;opacity:0.3;"/>
  <text x="20.0" y="10.0" transform="matrix(6.123233995736766E-17,-1.0,1.0,6.123233995736766E-17,9.999999999999998,30.0)" style="font-size:1.0000000000000013px;">E. coli</text>
  <rect x="25.0" y="-102.0" width="5.154639175257732" height="112.0" style="fill:cyan;opacity:0.3;"/>
  <text x="25.0" y="10.0" transform="matrix(6.123233995736766E-17,-1.0,1.0,6.123233995736766E-17,14.999999999999998,35.0)" style="font-size:1.0000000000000013px;">Chlamydomonas r</text>
  <rect x="30.0" y="-89.0" width="5.154639175257732" height="99.0" style="fill:cyan;opacity:0.3;"/>
  <text x="30.0" y="10.0" transform="matrix(6.123233995736766E-17,-1.0,1.0,6.123233995736766E-17,20.0,40.0)" style="font-size:1.0000000000000013px;">Drosophila mela</text>
  <rect x="35.0" y="-82.0" width="5.154639175257732" height="92.0" style="fill:cyan;opacity:0.3;"/>
  <text x="35.0" y="10.0" transform="matrix(6.123233995736766E-17,-1.0,1.0,6.123233995736766E-17,25.0,45.0)" style="font-size:1.0000000000000013px;">Arabidopsis tha</text>
  <rect x="40.0" y="-69.0" width="5.154639175257732" height="79.0" style="fill:cyan;opacity:0.3;"/>
  <text x="40.0" y="10.0" transform="matrix(6.123233995736766E-17,-1.0,1.0,6.123233995736766E-17,30.0,50.0)" style="font-size:1.0000000000000013px;">Natronomonas ph</text>
  <rect x="46.0" y="-56.0" width="5.154639175257732" height="66.0" style="fill:cyan;opacity:0.3;"/>
  <text x="46.0" y="10.0" transform="matrix(6.123233995736766E-17,-1.0,1.0,6.123233995736766E-17,36.0,56.0)" style="font-size:1.0000000000000013px;">C. elegans</text>
  <rect x="51.0" y="-36.0" width="5.154639175257732" height="46.0" style="fill:cyan;opacity:0.3;"/>
  <text x="51.0" y="10.0" transform="matrix(6.123233995736766E-17,-1.0,1.0,6.123233995736766E-17,41.0,61.0)" style="font-size:1.0000000000000013px;">Corynebacterium</text>
  <rect x="56.0" y="-23.0" width="5.154639175257732" height="33.0" style="fill:cyan;opacity:0.3;"/>
  <text x="56.0" y="10.0" transform="matrix(6.123233995736766E-17,-1.0,1.0,6.123233995736766E-17,46.0,66.0)" style="font-size:1.0000000000000013px;">Halobacterium s</text>
  <rect x="61.0" y="-23.0" width="5.154639175257732" height="33.0" style="fill:cyan;opacity:0.3;"/>
  <text x="61.0" y="10.0" transform="matrix(6.123233995736766E-17,-1.0,1.0,6.123233995736766E-17,51.0,71.0)" style="font-size:1.0000000000000013px;">Guillardia thet</text>
  <rect x="66.0" y="-16.0" width="5.154639175257732" height="26.0" style="fill:cyan;opacity:0.3;"/>
  <text x="66.0" y="10.0" transform="matrix(6.123233995736766E-17,-1.0,1.0,6.123233995736766E-17,56.0,76.0)" style="font-size:1.0000000000000013px;">Saccharomyces c</text>
  <rect x="71.0" y="-16.0" width="5.154639175257732" height="26.0" style="fill:cyan;opacity:0.3;"/>
  <text x="71.0" y="10.0" transform="matrix(6.123233995736766E-17,-1.0,1.0,6.123233995736766E-17,61.0,81.0)" style="font-size:1.0000000000000013px;">Avena sativa</text>
  <rect x="77.0" y="-16.0" width="5.154639175257732" height="26.0" style="fill:cyan;opacity:0.3;"/>
  <text x="77.0" y="10.0" transform="matrix(6.123233995736766E-17,-1.0,1.0,6.123233995736766E-17,67.0,87.0)" style="font-size:1.0000000000000013px;">Microcebus muri</text>
  <rect x="82.0" y="-16.0" width="5.154639175257732" height="26.0" style="fill:cyan;opacity:0.3;"/>
  <text x="82.0" y="10.0" transform="matrix(6.123233995736766E-17,-1.0,1.0,6.123233995736766E-17,72.0,92.0)" style="font-size:1.0000000000000013px;">Haloarcula sali</text>
  <rect x="87.0" y="-9.0" width="5.154639175257732" height="19.0" style="fill:cyan;opacity:0.3;"/>
  <text x="87.0" y="10.0" transform="matrix(6.123233995736766E-17,-1.0,1.0,6.123233995736766E-17,77.0,97.0)" style="font-size:1.0000000000000013px;">Halorubrum sodo</text>
  <rect x="92.0" y="-9.0" width="5.154639175257732" height="19.0" style="fill:cyan;opacity:0.3;"/>
  <text x="92.0" y="10.0" transform="matrix(6.123233995736766E-17,-1.0,1.0,6.123233995736766E-17,82.0,102.0)" style="font-size:1.0000000000000013px;">Drosophila suzu</text>
  <rect x="97.0" y="-9.0" width="5.154639175257732" height="19.0" style="fill:cyan;opacity:0.3;"/>
  <text x="97.0" y="10.0" transform="matrix(6.123233995736766E-17,-1.0,1.0,6.123233995736766E-17,87.0,107.0)" style="font-size:1.0000000000000013px;">Toxoplasma gond</text>
  <rect x="102.0" y="-9.0" width="5.154639175257732" height="19.0" style="fill:cyan;opacity:0.3;"/>
  <text x="102.0" y="10.0" transform="matrix(6.123233995736766E-17,-1.0,1.0,6.123233995736766E-17,92.0,112.0)" style="font-size:1.0000000000000013px;">Jannaschia seos</text>
  <rect x="107.0" y="-9.0" width="5.154639175257732" height="19.0" style="fill:cyan;opacity:0.3;"/>
  <text x="107.0" y="10.0" transform="matrix(6.123233995736766E-17,-1.0,1.0,6.123233995736766E-17,97.0,117.0)" style="font-size:1.0000000000000013px;">Danio rerio</text>
  <rect x="113.0" y="-3.0" width="5.154639175257732" height="13.0" style="fill:cyan;opacity:0.3;"/>
  <text x="113.0" y="10.0" transform="matrix(6.123233995736766E-17,-1.0,1.0,6.123233995736766E-17,103.0,123.0)" style="font-size:1.0000000000000013px;">Bombyx mori</text>
  <rect x="118.0" y="-3.0" width="5.154639175257732" height="13.0" style="fill:cyan;opacity:0.3;"/>
  <text x="118.0" y="10.0" transform="matrix(6.123233995736766E-17,-1.0,1.0,6.123233995736766E-17,108.0,128.0)" style="font-size:1.0000000000000013px;">Hydra vulgaris</text>
  <rect x="123.0" y="-3.0" width="5.154639175257732" height="13.0" style="fill:cyan;opacity:0.3;"/>
  <text x="123.0" y="10.0" transform="matrix(6.123233995736766E-17,-1.0,1.0,6.123233995736766E-17,113.0,133.0)" style="font-size:1.0000000000000013px;">Homo sapiens</text>
  <rect x="128.0" y="-3.0" width="5.154639175257732" height="13.0" style="fill:cyan;opacity:0.3;"/>
  <text x="128.0" y="10.0" transform="matrix(6.123233995736766E-17,-1.0,1.0,6.123233995736766E-17,118.0,138.0)" style="font-size:1.0000000000000013px;">Trypanosoma cru</text>
  <rect x="133.0" y="-3.0" width="5.154639175257732" height="13.0" style="fill:cyan;opacity:0.3;"/>
  <text x="133.0" y="10.0" transform="matrix(6.123233995736766E-17,-1.0,1.0,6.123233995736766E-17,122.99999999999999,143.0)" style="font-size:1.0000000000000013px;">Thermus thermop</text>
  <rect x="138.0" y="-3.0" width="5.154639175257732" height="13.0" style="fill:cyan;opacity:0.3;"/>
  <text x="138.0" y="10.0" transform="matrix(6.123233995736766E-17,-1.0,1.0,6.123233995736766E-17,127.99999999999999,148.0)" style="font-size:1.0000000000000013px;">Parvularcula oc</text>
  <rect x="144.0" y="-3.0" width="5.154639175257732" height="13.0" style="fill:cyan;opacity:0.3;"/>
  <text x="144.0" y="10.0" transform="matrix(6.123233995736766E-17,-1.0,1.0,6.123233995736766E-17,134.0,154.0)" style="font-size:1.0000000000000013px;">Latimeria chalu</text>
  <rect x="149.0" y="-3.0" width="5.154639175257732" height="13.0" style="fill:cyan;opacity:0.3;"/>
  <text x="149.0" y="10.0" transform="matrix(6.123233995736766E-17,-1.0,1.0,6.123233995736766E-17,139.0,159.0)" style="font-size:1.0000000000000013px;">Callorhinchus m</text>
  <rect x="154.0" y="-3.0" width="5.154639175257732" height="13.0" style="fill:cyan;opacity:0.3;"/>
  <text x="154.0" y="10.0" transform="matrix(6.123233995736766E-17,-1.0,1.0,6.123233995736766E-17,144.0,164.0)" style="font-size:1.0000000000000013px;">Macaca mulatta</text>
  <rect x="159.0" y="-3.0" width="5.154639175257732" height="13.0" style="fill:cyan;opacity:0.3;"/>
  <text x="159.0" y="10.0" transform="matrix(6.123233995736766E-17,-1.0,1.0,6.123233995736766E-17,149.0,169.0)" style="font-size:1.0000000000000013px;">Erythrobacter c</text>
  <rect x="164.0" y="-3.0" width="5.154639175257732" height="13.0" style="fill:cyan;opacity:0.3;"/>
  <text x="164.0" y="10.0" transform="matrix(6.123233995736766E-17,-1.0,1.0,6.123233995736766E-17,154.0,174.0)" style="font-size:1.0000000000000013px;">Xenopus tropica</text>
  <rect x="169.0" y="-3.0" width="5.154639175257732" height="13.0" style="fill:cyan;opacity:0.3;"/>
  <text x="169.0" y="10.0" transform="matrix(6.123233995736766E-17,-1.0,1.0,6.123233995736766E-17,159.0,179.0)" style="font-size:1.0000000000000013px;">Gallus gallus</text>
  <rect x="174.0" y="-3.0" width="5.154639175257732" height="13.0" style="fill:cyan;opacity:0.3;"/>
  <text x="174.0" y="10.0" transform="matrix(6.123233995736766E-17,-1.0,1.0,6.123233995736766E-17,164.0,184.0)" style="font-size:1.0000000000000013px;">Volvox carteri</text>
  <rect x="180.0" y="-3.0" width="5.154639175257732" height="13.0" style="fill:cyan;opacity:0.3;"/>
  <text x="180.0" y="10.0" transform="matrix(6.123233995736766E-17,-1.0,1.0,6.123233995736766E-17,170.0,190.0)" style="font-size:1.0000000000000013px;">False alarm</text>
  <rect x="185.0" y="-3.0" width="5.154639175257732" height="13.0" style="fill:cyan;opacity:0.3;"/>
  <text x="185.0" y="10.0" transform="matrix(6.123233995736766E-17,-1.0,1.0,6.123233995736766E-17,175.0,195.0)" style="font-size:1.0000000000000013px;">Vaucheria frigi</text>
  <rect x="190.0" y="-3.0" width="5.154639175257732" height="13.0" style="fill:cyan;opacity:0.3;"/>
  <text x="190.0" y="10.0" transform="matrix(6.123233995736766E-17,-1.0,1.0,6.123233995736766E-17,180.0,200.0)" style="font-size:1.0000000000000013px;">Correct rejecti</text>
  <rect x="195.0" y="-3.0" width="5.154639175257732" height="13.0" style="fill:cyan;opacity:0.3;"/>
  <text x="195.0" y="10.0" transform="matrix(6.123233995736766E-17,-1.0,1.0,6.123233995736766E-17,185.0,205.0)" style="font-size:1.0000000000000013px;">Lactococcus lac</text>
  <rect x="200.0" y="-3.0" width="5.154639175257732" height="13.0" style="fill:cyan;opacity:0.3;"/>
  <text x="200.0" y="10.0" transform="matrix(6.123233995736766E-17,-1.0,1.0,6.123233995736766E-17,190.0,210.0)" style="font-size:1.0000000000000013px;">Indibacter alka</text>
  <rect x="205.0" y="-3.0" width="5.154639175257732" height="13.0" style="fill:cyan;opacity:0.3;"/>
  <text x="205.0" y="10.0" transform="matrix(6.123233995736766E-17,-1.0,1.0,6.123233995736766E-17,195.0,215.0)" style="font-size:1.0000000000000013px;">Thermosynechoco</text>
  <rect x="211.0" y="-3.0" width="5.154639175257732" height="13.0" style="fill:cyan;opacity:0.3;"/>
  <text x="211.0" y="10.0" transform="matrix(6.123233995736766E-17,-1.0,1.0,6.123233995736766E-17,201.0,221.0)" style="font-size:1.0000000000000013px;">Natronobacteriu</text>
  <rect x="216.0" y="-3.0" width="5.154639175257732" height="13.0" style="fill:cyan;opacity:0.3;"/>
  <text x="216.0" y="10.0" transform="matrix(6.123233995736766E-17,-1.0,1.0,6.123233995736766E-17,206.0,226.0)" style="font-size:1.0000000000000013px;">Toxoplasma cruz</text>
  <rect x="221.0" y="-3.0" width="5.154639175257732" height="13.0" style="fill:cyan;opacity:0.3;"/>
  <text x="221.0" y="10.0" transform="matrix(6.123233995736766E-17,-1.0,1.0,6.123233995736766E-17,211.0,231.0)" style="font-size:1.0000000000000013px;">Entacmaea quadr</text>
  <rect x="226.0" y="-3.0" width="5.154639175257732" height="13.0" style="fill:cyan;opacity:0.3;"/>
  <text x="226.0" y="10.0" transform="matrix(6.123233995736766E-17,-1.0,1.0,6.123233995736766E-17,216.0,236.0)" style="font-size:1.0000000000000013px;">Chlamydomonas n</text>
  <rect x="231.0" y="4.0" width="5.154639175257732" height="6.0" style="fill:cyan;opacity:0.3;"/>
  <text x="231.0" y="10.0" transform="matrix(6.123233995736766E-17,-1.0,1.0,6.123233995736766E-17,221.0,241.0)" style="font-size:1.0000000000000013px;">Herpes simplex</text>
  <rect x="236.0" y="4.0" width="5.154639175257732" height="6.0" style="fill:cyan;opacity:0.3;"/>
  <text x="236.0" y="10.0" transform="matrix(6.123233995736766E-17,-1.0,1.0,6.123233995736766E-17,226.0,246.0)" style="font-size:1.0000000000000013px;">Xanthomonas sp</text>
  <rect x="241.0" y="4.0" width="5.154639175257732" height="6.0" style="fill:cyan;opacity:0.3;"/>
  <text x="241.0" y="10.0" transform="matrix(6.123233995736766E-17,-1.0,1.0,6.123233995736766E-17,231.0,251.0)" style="font-size:1.0000000000000013px;">Yarrowia lipoly</text>
  <rect x="247.0" y="4.0" width="5.154639175257732" height="6.0" style="fill:cyan;opacity:0.3;"/>
  <text x="247.0" y="10.0" transform="matrix(6.123233995736766E-17,-1.0,1.0,6.123233995736766E-17,236.99999999999997,257.0)" style="font-size:1.0000000000000013px;">Ionotropic rece</text>
  <rect x="252.0" y="4.0" width="5.154639175257732" height="6.0" style="fill:cyan;opacity:0.3;"/>
  <text x="252.0" y="10.0" transform="matrix(6.123233995736766E-17,-1.0,1.0,6.123233995736766E-17,241.99999999999997,262.0)" style="font-size:1.0000000000000013px;">Acaryochloris m</text>
  <rect x="257.0" y="4.0" width="5.154639175257732" height="6.0" style="fill:cyan;opacity:0.3;"/>
  <text x="257.0" y="10.0" transform="matrix(6.123233995736766E-17,-1.0,1.0,6.123233995736766E-17,246.99999999999997,267.0)" style="font-size:1.0000000000000013px;">Natronomonas ph</text>
  <rect x="262.0" y="4.0" width="5.154639175257732" height="6.0" style="fill:cyan;opacity:0.3;"/>
  <text x="262.0" y="10.0" transform="matrix(6.123233995736766E-17,-1.0,1.0,6.123233995736766E-17,251.99999999999997,272.0)" style="font-size:1.0000000000000013px;">Leptosphaeria m</text>
  <rect x="267.0" y="4.0" width="5.154639175257732" height="6.0" style="fill:cyan;opacity:0.3;"/>
  <text x="267.0" y="10.0" transform="matrix(6.123233995736766E-17,-1.0,1.0,6.123233995736766E-17,257.0,277.0)" style="font-size:1.0000000000000013px;">Post hoc</text>
  <rect x="272.0" y="4.0" width="5.154639175257732" height="6.0" style="fill:cyan;opacity:0.3;"/>
  <text x="272.0" y="10.0" transform="matrix(6.123233995736766E-17,-1.0,1.0,6.123233995736766E-17,262.0,282.0)" style="font-size:1.0000000000000013px;">Flow cytometry</text>
  <rect x="278.0" y="4.0" width="5.154639175257732" height="6.0" style="fill:cyan;opacity:0.3;"/>
  <text x="278.0" y="10.0" transform="matrix(6.123233995736766E-17,-1.0,1.0,6.123233995736766E-17,268.0,288.0)" style="font-size:1.0000000000000013px;">Krokinobacter e</text>
  <rect x="283.0" y="4.0" width="5.154639175257732" height="6.0" style="fill:cyan;opacity:0.3;"/>
  <text x="283.0" y="10.0" transform="matrix(6.123233995736766E-17,-1.0,1.0,6.123233995736766E-17,273.0,293.0)" style="font-size:1.0000000000000013px;">Ipso facto</text>
  <rect x="288.0" y="4.0" width="5.154639175257732" height="6.0" style="fill:cyan;opacity:0.3;"/>
  <text x="288.0" y="10.0" transform="matrix(6.123233995736766E-17,-1.0,1.0,6.123233995736766E-17,278.0,298.0)" style="font-size:1.0000000000000013px;">Parkinsons dise</text>
  <rect x="293.0" y="4.0" width="5.154639175257732" height="6.0" style="fill:cyan;opacity:0.3;"/>
  <text x="293.0" y="10.0" transform="matrix(6.123233995736766E-17,-1.0,1.0,6.123233995736766E-17,283.0,303.0)" style="font-size:1.0000000000000013px;">Arabidopsis sat</text>
  <rect x="298.0" y="4.0" width="5.154639175257732" height="6.0" style="fill:cyan;opacity:0.3;"/>
  <text x="298.0" y="10.0" transform="matrix(6.123233995736766E-17,-1.0,1.0,6.123233995736766E-17,288.0,308.0)" style="font-size:1.0000000000000013px;">Contractility a</text>
  <rect x="303.0" y="4.0" width="5.154639175257732" height="6.0" style="fill:cyan;opacity:0.3;"/>
  <text x="303.0" y="10.0" transform="matrix(6.123233995736766E-17,-1.0,1.0,6.123233995736766E-17,293.0,313.0)" style="font-size:1.0000000000000013px;">Salinibacter ru</text>
  <rect x="308.0" y="4.0" width="5.154639175257732" height="6.0" style="fill:cyan;opacity:0.3;"/>
  <text x="308.0" y="10.0" transform="matrix(6.123233995736766E-17,-1.0,1.0,6.123233995736766E-17,298.0,318.0)" style="font-size:1.0000000000000013px;">Proteomonas sul</text>
  <rect x="314.0" y="4.0" width="5.154639175257732" height="6.0" style="fill:cyan;opacity:0.3;"/>
  <text x="314.0" y="10.0" transform="matrix(6.123233995736766E-17,-1.0,1.0,6.123233995736766E-17,304.0,324.0)" style="font-size:1.0000000000000013px;">Aequorea victor</text>
  <rect x="319.0" y="4.0" width="5.154639175257732" height="6.0" style="fill:cyan;opacity:0.3;"/>
  <text x="319.0" y="10.0" transform="matrix(6.123233995736766E-17,-1.0,1.0,6.123233995736766E-17,309.0,329.0)" style="font-size:1.0000000000000013px;">Panagrellus red</text>
  <rect x="324.0" y="4.0" width="5.154639175257732" height="6.0" style="fill:cyan;opacity:0.3;"/>
  <text x="324.0" y="10.0" transform="matrix(6.123233995736766E-17,-1.0,1.0,6.123233995736766E-17,314.0,334.0)" style="font-size:1.0000000000000013px;">Nicotiniana tab</text>
  <rect x="329.0" y="4.0" width="5.154639175257732" height="6.0" style="fill:cyan;opacity:0.3;"/>
  <text x="329.0" y="10.0" transform="matrix(6.123233995736766E-17,-1.0,1.0,6.123233995736766E-17,319.0,339.0)" style="font-size:1.0000000000000013px;">Vibrio cholera</text>
  <rect x="334.0" y="4.0" width="5.154639175257732" height="6.0" style="fill:cyan;opacity:0.3;"/>
  <text x="334.0" y="10.0" transform="matrix(6.123233995736766E-17,-1.0,1.0,6.123233995736766E-17,324.0,344.0)" style="font-size:1.0000000000000013px;">Haloarcula vall</text>
  <rect x="339.0" y="4.0" width="5.154639175257732" height="6.0" style="fill:cyan;opacity:0.3;"/>
  <text x="339.0" y="10.0" transform="matrix(6.123233995736766E-17,-1.0,1.0,6.123233995736766E-17,329.0,349.0)" style="font-size:1.0000000000000013px;">Statistical ana</text>
  <rect x="345.0" y="4.0" width="5.154639175257732" height="6.0" style="fill:cyan;opacity:0.3;"/>
  <text x="345.0" y="10.0" transform="matrix(6.123233995736766E-17,-1.0,1.0,6.123233995736766E-17,335.0,355.0)" style="font-size:1.0000000000000013px;">Xenopus laevis</text>
  <rect x="350.0" y="4.0" width="5.154639175257732" height="6.0" style="fill:cyan;opacity:0.3;"/>
  <text x="350.0" y="10.0" transform="matrix(6.123233995736766E-17,-1.0,1.0,6.123233995736766E-17,340.0,360.0)" style="font-size:1.0000000000000013px;">Network effects</text>
  <rect x="355.0" y="4.0" width="5.154639175257732" height="6.0" style="fill:cyan;opacity:0.3;"/>
  <text x="355.0" y="10.0" transform="matrix(6.123233995736766E-17,-1.0,1.0,6.123233995736766E-17,345.0,365.0)" style="font-size:1.0000000000000013px;">Dunaliella sali</text>
  <rect x="360.0" y="4.0" width="5.154639175257732" height="6.0" style="fill:cyan;opacity:0.3;"/>
  <text x="360.0" y="10.0" transform="matrix(6.123233995736766E-17,-1.0,1.0,6.123233995736766E-17,350.0,370.0)" style="font-size:1.0000000000000013px;">Ionotropic rece</text>
  <rect x="365.0" y="4.0" width="5.154639175257732" height="6.0" style="fill:cyan;opacity:0.3;"/>
  <text x="365.0" y="10.0" transform="matrix(6.123233995736766E-17,-1.0,1.0,6.123233995736766E-17,355.0,375.0)" style="font-size:1.0000000000000013px;">Meriones unguic</text>
  <rect x="370.0" y="4.0" width="5.154639175257732" height="6.0" style="fill:cyan;opacity:0.3;"/>
  <text x="370.0" y="10.0" transform="matrix(6.123233995736766E-17,-1.0,1.0,6.123233995736766E-17,360.0,380.0)" style="font-size:1.0000000000000013px;">Acrytosiphon pi</text>
  <rect x="375.0" y="4.0" width="5.154639175257732" height="6.0" style="fill:cyan;opacity:0.3;"/>
  <text x="375.0" y="10.0" transform="matrix(6.123233995736766E-17,-1.0,1.0,6.123233995736766E-17,365.0,385.0)" style="font-size:1.0000000000000013px;">Macaca fascicul</text>
  <rect x="381.0" y="4.0" width="5.154639175257732" height="6.0" style="fill:cyan;opacity:0.3;"/>
  <text x="381.0" y="10.0" transform="matrix(6.123233995736766E-17,-1.0,1.0,6.123233995736766E-17,371.0,391.0)" style="font-size:1.0000000000000013px;">Salmonella typh</text>
  <rect x="386.0" y="4.0" width="5.154639175257732" height="6.0" style="fill:cyan;opacity:0.3;"/>
  <text x="386.0" y="10.0" transform="matrix(6.123233995736766E-17,-1.0,1.0,6.123233995736766E-17,376.0,396.0)" style="font-size:1.0000000000000013px;">Erythrobacter l</text>
  <rect x="391.0" y="4.0" width="5.154639175257732" height="6.0" style="fill:cyan;opacity:0.3;"/>
  <text x="391.0" y="10.0" transform="matrix(6.123233995736766E-17,-1.0,1.0,6.123233995736766E-17,381.0,401.0)" style="font-size:1.0000000000000013px;">Gloeobacter vio</text>
  <rect x="396.0" y="4.0" width="5.154639175257732" height="6.0" style="fill:cyan;opacity:0.3;"/>
  <text x="396.0" y="10.0" transform="matrix(6.123233995736766E-17,-1.0,1.0,6.123233995736766E-17,386.0,406.0)" style="font-size:1.0000000000000013px;">Plasmodium falc</text>
  <rect x="401.0" y="4.0" width="5.154639175257732" height="6.0" style="fill:cyan;opacity:0.3;"/>
  <text x="401.0" y="10.0" transform="matrix(6.123233995736766E-17,-1.0,1.0,6.123233995736766E-17,391.0,411.0)" style="font-size:1.0000000000000013px;">Platynereis dum</text>
  <rect x="406.0" y="4.0" width="5.154639175257732" height="6.0" style="fill:cyan;opacity:0.3;"/>
  <text x="406.0" y="10.0" transform="matrix(6.123233995736766E-17,-1.0,1.0,6.123233995736766E-17,396.0,416.0)" style="font-size:1.0000000000000013px;">Neurospora cras</text>
  <rect x="412.0" y="4.0" width="5.154639175257732" height="6.0" style="fill:cyan;opacity:0.3;"/>
  <text x="412.0" y="10.0" transform="matrix(6.123233995736766E-17,-1.0,1.0,6.123233995736766E-17,402.0,422.0)" style="font-size:1.0000000000000013px;">Haloquadratum w</text>
  <rect x="417.0" y="4.0" width="5.154639175257732" height="6.0" style="fill:cyan;opacity:0.3;"/>
  <text x="417.0" y="10.0" transform="matrix(6.123233995736766E-17,-1.0,1.0,6.123233995736766E-17,407.0,427.0)" style="font-size:1.0000000000000013px;">Ciona intestina</text>
  <rect x="422.0" y="4.0" width="5.154639175257732" height="6.0" style="fill:cyan;opacity:0.3;"/>
  <text x="422.0" y="10.0" transform="matrix(6.123233995736766E-17,-1.0,1.0,6.123233995736766E-17,412.0,432.0)" style="font-size:1.0000000000000013px;">Anemonia sulcat</text>
  <rect x="427.0" y="4.0" width="5.154639175257732" height="6.0" style="fill:cyan;opacity:0.3;"/>
  <text x="427.0" y="10.0" transform="matrix(6.123233995736766E-17,-1.0,1.0,6.123233995736766E-17,417.0,437.0)" style="font-size:1.0000000000000013px;">Carybdea raston</text>
  <rect x="432.0" y="4.0" width="5.154639175257732" height="6.0" style="fill:cyan;opacity:0.3;"/>
  <text x="432.0" y="10.0" transform="matrix(6.123233995736766E-17,-1.0,1.0,6.123233995736766E-17,422.0,442.0)" style="font-size:1.0000000000000013px;">Moorella thermo</text>
  <rect x="437.0" y="4.0" width="5.154639175257732" height="6.0" style="fill:cyan;opacity:0.3;"/>
  <text x="437.0" y="10.0" transform="matrix(6.123233995736766E-17,-1.0,1.0,6.123233995736766E-17,427.0,447.0)" style="font-size:1.0000000000000013px;">Sparse modeling</text>
  <rect x="442.0" y="4.0" width="5.154639175257732" height="6.0" style="fill:cyan;opacity:0.3;"/>
  <text x="442.0" y="10.0" transform="matrix(6.123233995736766E-17,-1.0,1.0,6.123233995736766E-17,432.0,452.0)" style="font-size:1.0000000000000013px;">Neurosphere dis</text>
  <rect x="448.0" y="4.0" width="5.154639175257732" height="6.0" style="fill:cyan;opacity:0.3;"/>
  <text x="448.0" y="10.0" transform="matrix(6.123233995736766E-17,-1.0,1.0,6.123233995736766E-17,438.0,458.0)" style="font-size:1.0000000000000013px;">Clonorchis sine</text>
  <rect x="453.0" y="4.0" width="5.154639175257732" height="6.0" style="fill:cyan;opacity:0.3;"/>
  <text x="453.0" y="10.0" transform="matrix(6.123233995736766E-17,-1.0,1.0,6.123233995736766E-17,443.0,463.0)" style="font-size:1.0000000000000013px;">Tetraselmis str</text>
  <rect x="458.0" y="4.0" width="5.154639175257732" height="6.0" style="fill:cyan;opacity:0.3;"/>
  <text x="458.0" y="10.0" transform="matrix(6.123233995736766E-17,-1.0,1.0,6.123233995736766E-17,448.0,468.0)" style="font-size:1.0000000000000013px;">Callithrix jacc</text>
  <rect x="463.0" y="4.0" width="5.154639175257732" height="6.0" style="fill:cyan;opacity:0.3;"/>
  <text x="463.0" y="10.0" transform="matrix(6.123233995736766E-17,-1.0,1.0,6.123233995736766E-17,453.0,473.0)" style="font-size:1.0000000000000013px;">Dunaliella tert</text>
  <rect x="468.0" y="4.0" width="5.154639175257732" height="6.0" style="fill:cyan;opacity:0.3;"/>
  <text x="468.0" y="10.0" transform="matrix(6.123233995736766E-17,-1.0,1.0,6.123233995736766E-17,458.0,478.0)" style="font-size:1.0000000000000013px;">Halobacterium w</text>
  <rect x="473.0" y="4.0" width="5.154639175257732" height="6.0" style="fill:cyan;opacity:0.3;"/>
  <text x="473.0" y="10.0" transform="matrix(6.123233995736766E-17,-1.0,1.0,6.123233995736766E-17,463.0,483.0)" style="font-size:1.0000000000000013px;">Rhodobacter sph</text>
  <rect x="479.0" y="4.0" width="5.154639175257732" height="6.0" style="fill:cyan;opacity:0.3;"/>
  <text x="479.0" y="10.0" transform="matrix(6.123233995736766E-17,-1.0,1.0,6.123233995736766E-17,468.99999999999994,489.0)" style="font-size:1.0000000000000013px;">Pyrococcus furi</text>
  <rect x="484.0" y="4.0" width="5.154639175257732" height="6.0" style="fill:cyan;opacity:0.3;"/>
  <text x="484.0" y="10.0" transform="matrix(6.123233995736766E-17,-1.0,1.0,6.123233995736766E-17,473.99999999999994,494.0)" style="font-size:1.0000000000000013px;">Chlamydomonas s</text>
  <rect x="489.0" y="4.0" width="5.154639175257732" height="6.0" style="fill:cyan;opacity:0.3;"/>
  <text x="489.0" y="10.0" transform="matrix(6.123233995736766E-17,-1.0,1.0,6.123233995736766E-17,478.99999999999994,499.0)" style="font-size:1.0000000000000013px;">Pelodiscus sine</text>
  <rect x="494.0" y="4.0" width="5.154639175257732" height="6.0" style="fill:cyan;opacity:0.3;"/>
  <text x="494.0" y="10.0" transform="matrix(6.123233995736766E-17,-1.0,1.0,6.123233995736766E-17,483.99999999999994,504.0)" style="font-size:1.0000000000000013px;">Amanita muscari</text>
  <rect x="499.0" y="4.0" width="5.154639175257732" height="6.0" style="fill:cyan;opacity:0.3;"/>
  <text x="499.0" y="10.0" transform="matrix(6.123233995736766E-17,-1.0,1.0,6.123233995736766E-17,488.99999999999994,509.0)" style="font-size:1.0000000000000013px;">H. sapiens</text>
  <rect x="504.0" y="4.0" width="5.154639175257732" height="6.0" style="fill:cyan;opacity:0.3;"/>
  <text x="504.0" y="10.0" transform="matrix(6.123233995736766E-17,-1.0,1.0,6.123233995736766E-17,493.99999999999994,514.0)" style="font-size:1.0000000000000013px;">Motoneuron diff</text>
 </g>
</svg>
